<?xml version="1.0" standalone="no"?>
<!DOCTYPE svg PUBLIC "-//W3C//DTD SVG 20010904//EN"
 "http://www.w3.org/TR/2001/REC-SVG-20010904/DTD/svg10.dtd">
<svg version="1.0" xmlns="http://www.w3.org/2000/svg"
 width="400.000000pt" height="400.000000pt" viewBox="0 0 400.000000 400.000000"
 preserveAspectRatio="xMidYMid meet">
<metadata>
Created by potrace 1.11, written by Peter Selinger 2001-2013
</metadata>
<g transform="translate(0.000000,400.000000) scale(0.100000,-0.100000)"
fill="#000000" stroke="none">
<path d="M1877 3744 c-1 -1 -33 -4 -72 -7 -38 -3 -90 -10 -115 -15 -25 -6 -63
-13 -85 -17 -86 -13 -326 -103 -375 -140 -8 -6 -37 -24 -65 -40 -27 -16 -52
-31 -55 -34 -3 -3 -23 -19 -45 -35 -22 -16 -47 -37 -56 -45 -9 -9 -31 -30 -50
-47 -77 -71 -229 -256 -229 -279 0 -5 -6 -16 -14 -24 -32 -35 -157 -321 -141
-321 3 0 0 -11 -5 -25 -19 -49 -46 -225 -45 -287 1 -16 -4 -28 -10 -28 -6 0
-7 -3 0 -8 13 -9 15 -42 3 -42 -6 0 -6 -6 1 -14 10 -11 10 -20 1 -37 -10 -17
-9 -20 1 -14 8 6 10 4 4 -4 -10 -17 -13 -71 -3 -71 4 0 8 -5 8 -11 0 -5 -4 -8
-8 -5 -9 5 -8 -71 1 -80 3 -4 2 -17 -3 -30 -6 -14 -6 -26 1 -29 5 -4 7 -11 3
-16 -9 -16 -11 -69 -2 -69 4 0 8 -5 8 -11 0 -5 -4 -8 -8 -5 -7 4 -8 -50 -2
-64 1 -3 1 -9 0 -15 -6 -29 -5 -65 2 -65 4 0 8 -5 8 -11 0 -5 -4 -8 -8 -5 -7
4 -8 -50 -2 -64 1 -3 1 -9 0 -15 -6 -29 -5 -65 2 -65 4 0 8 -5 8 -11 0 -5 -4
-8 -8 -5 -7 4 -8 -50 -2 -64 1 -3 1 -9 0 -15 -6 -29 -5 -65 2 -65 4 0 8 -5 8
-11 0 -5 -4 -8 -8 -5 -9 5 -8 -71 1 -80 3 -4 2 -17 -3 -30 -6 -14 -6 -26 1
-29 5 -4 7 -11 3 -16 -9 -16 -11 -69 -2 -69 4 0 8 -5 8 -11 0 -5 -4 -8 -8 -5
-9 5 -8 -71 1 -80 3 -4 2 -16 -3 -29 -5 -14 -5 -26 3 -34 7 -7 7 -11 1 -11 -6
0 -11 -7 -11 -15 0 -8 5 -15 10 -15 5 0 5 -6 -2 -13 -8 -10 -7 -17 1 -25 7 -7
8 -12 2 -12 -6 0 -11 -7 -11 -15 0 -8 4 -15 9 -15 5 0 4 -8 -1 -18 -5 -10 -6
-24 -1 -32 4 -7 4 -24 0 -36 -6 -14 -5 -26 1 -29 5 -4 7 -11 3 -16 -9 -16 -11
-69 -2 -69 4 0 8 -5 8 -11 0 -5 -4 -8 -8 -5 -9 5 -8 -72 1 -81 4 -3 2 -14 -4
-24 -5 -11 -6 -19 -1 -19 5 0 9 -10 8 -22 -4 -50 35 -157 71 -195 6 -7 13 -16
15 -20 7 -18 96 -81 143 -103 56 -26 162 -34 223 -18 109 29 211 112 256 211
14 32 25 61 25 65 -6 39 6 25 25 -30 24 -68 91 -167 114 -168 6 0 12 -4 12 -9
0 -5 30 -24 67 -41 143 -68 316 -36 430 78 13 13 23 27 23 31 0 5 7 14 15 21
8 7 24 39 36 71 23 64 27 66 35 25 6 -38 39 -95 77 -137 79 -88 182 -129 305
-124 58 3 158 37 178 62 6 7 15 13 20 13 18 0 88 87 115 143 l27 59 21 -47
c12 -26 21 -49 21 -51 0 -2 8 -12 19 -23 10 -10 20 -23 22 -27 9 -21 98 -83
149 -105 78 -33 192 -32 274 3 132 57 207 158 232 313 3 22 8 43 10 47 2 4 0
9 -6 13 -6 4 -8 11 -4 16 9 16 11 69 2 69 -4 0 -8 5 -8 11 0 5 4 8 8 5 7 -4 8
50 2 64 -1 3 -1 10 0 15 6 29 5 65 -2 65 -4 0 -8 5 -8 11 0 5 4 8 8 5 9 -5 8
71 -1 80 -3 4 -2 17 3 30 6 14 6 26 -1 29 -5 4 -7 11 -3 16 9 16 11 69 2 69
-4 0 -8 5 -8 11 0 5 4 8 8 5 9 -5 8 71 -1 80 -3 4 -2 17 3 30 6 14 6 26 -1 29
-5 4 -7 11 -3 16 9 16 11 69 2 69 -4 0 -8 5 -8 11 0 5 4 8 8 5 10 -6 9 45 -1
62 -5 6 -4 12 1 12 5 0 9 7 9 15 0 8 -5 15 -10 15 -5 0 -5 6 2 13 8 10 7 17
-1 25 -7 7 -8 12 -2 12 6 0 11 7 11 15 0 8 -5 15 -10 15 -5 0 -5 6 2 13 8 10
7 17 -1 25 -7 7 -8 12 -2 12 6 0 11 7 11 15 0 8 -5 15 -11 15 -6 0 -5 5 2 12
8 8 9 15 1 25 -7 7 -7 13 -2 13 5 0 10 7 10 15 0 8 -5 15 -10 15 -5 0 -4 6 2
14 8 10 9 16 1 21 -6 3 -8 11 -4 16 9 16 11 69 2 69 -4 0 -8 5 -8 11 0 5 4 8
8 5 9 -5 8 71 -1 80 -3 4 -2 17 3 30 6 14 6 26 -1 29 -5 4 -7 11 -3 16 9 16
11 69 2 69 -4 0 -8 5 -8 11 0 5 4 8 8 5 9 -5 8 71 -1 80 -3 4 -2 17 3 30 7 17
6 24 -3 24 -8 0 -7 3 2 9 11 7 12 13 4 23 -13 15 -14 25 -2 54 4 12 5 25 1 28
-3 4 -7 32 -8 62 -1 31 -5 71 -8 88 -3 17 -9 56 -12 86 -3 30 -9 62 -14 70 -4
8 -13 40 -20 70 -7 30 -16 62 -20 70 -4 8 -12 26 -17 40 -15 38 -92 191 -116
231 -68 111 -246 307 -327 359 -13 8 -30 22 -39 30 -20 19 -143 91 -196 116
-22 10 -42 20 -45 23 -7 8 -220 81 -250 86 -14 2 -42 6 -64 9 -21 4 -41 8 -45
10 -17 11 -412 29 -424 20z m-377 -1300 c62 -16 166 -62 197 -87 195 -161 276
-380 222 -597 -90 -354 -479 -534 -807 -373 -70 35 -212 156 -212 181 0 6 -6
17 -13 24 -15 16 -63 123 -71 158 -5 23 -17 122 -18 145 -2 56 24 178 47 222
8 15 15 32 15 36 0 5 8 19 18 32 9 12 24 33 32 45 56 83 175 168 288 205 107
35 191 37 302 9z m1285 -6 c172 -52 286 -149 363 -308 23 -48 55 -186 47 -200
-3 -5 -2 -11 3 -14 21 -13 -15 -187 -56 -271 -72 -145 -221 -269 -358 -299
-16 -4 -40 -9 -54 -12 -32 -7 -158 -6 -190 1 -14 3 -40 8 -59 11 -19 3 -50 14
-70 25 -20 10 -39 19 -44 19 -27 0 -197 152 -197 176 0 7 -6 17 -12 21 -15 9
-56 88 -62 118 -3 11 -11 46 -20 78 -17 63 -16 200 2 233 5 10 13 37 17 59 4
22 10 42 13 45 4 3 18 27 32 55 14 27 52 77 85 111 74 75 163 129 245 149 3 1
12 5 20 8 65 28 195 25 295 -5z"/>
</g>
</svg>
